<svg width="39" height="39" viewBox="0 0 39 39" fill="none" xmlns="http://www.w3.org/2000/svg">
<path d="M19.5 37.5C29.441 37.5 37.5 29.441 37.5 19.5C37.5 9.55887 29.441 1.5 19.5 1.5C9.55887 1.5 1.5 9.55887 1.5 19.5C1.5 29.441 9.55887 37.5 19.5 37.5Z" stroke="white" stroke-width="3" stroke-linecap="round" stroke-linejoin="round"/>
<path d="M2.39999 20.4L12.3 24L10.5 30.3L12.3 35.7" stroke="white" stroke-width="3" stroke-linecap="round" stroke-linejoin="round"/>
<path d="M28.5 34.8L27.6 30.3L23.1 28.5V22.2L28.5 20.4L36.6 21.3" stroke="white" stroke-width="3" stroke-linecap="round" stroke-linejoin="round"/>
<path d="M32.1 7.8L31.2 10.5L24.9 11.4V16.8L29.4 15H33L36.6 16.8" stroke="white" stroke-width="3" stroke-linecap="round" stroke-linejoin="round"/>
<path d="M2.39999 17.7L7.54285 13.86L12.6857 12.9L16.8 7.14L14.7429 3.3" stroke="white" stroke-width="3" stroke-linecap="round" stroke-linejoin="round"/>
</svg>
