<svg width="12" height="12" viewBox="0 0 12 12" fill="none" xmlns="http://www.w3.org/2000/svg">
<path d="M6.00293 0.549805C6.13988 0.549805 6.39948 0.655147 6.6582 1.16699V1.16797L7.68652 3.2373H7.6875C7.82805 3.51923 8.08319 3.73863 8.31348 3.87402L8.38672 3.91699L8.46973 3.93652H8.47363C8.47593 3.93705 8.47912 3.93848 8.4834 3.93945C8.4923 3.94148 8.50573 3.94445 8.52246 3.94824C8.55593 3.95583 8.6043 3.96626 8.66309 3.97949C8.78101 4.00604 8.94207 4.04285 9.11523 4.08105C9.45603 4.15623 9.86077 4.24282 10.0635 4.27832L10.0664 4.2793L10.6699 4.37988V4.38086C11.1977 4.47076 11.3811 4.67629 11.4316 4.81836H11.4326C11.4767 4.95912 11.4511 5.24101 11.0664 5.62695L11.0654 5.62793L9.61914 7.08398C9.43042 7.27326 9.30792 7.52079 9.24121 7.75391C9.1754 7.98387 9.14843 8.25702 9.20996 8.51758V8.51855L9.62207 10.3232V10.3252C9.78154 11.0147 9.62069 11.2696 9.53125 11.3369C9.47161 11.3769 9.40158 11.3984 9.33008 11.3965L9.32227 11.3955H9.31543C9.14216 11.3955 8.88058 11.3286 8.53711 11.125H8.53613L6.78711 10.082L6.78418 10.0811L6.69141 10.0312C6.47067 9.92504 6.2245 9.88379 6.00293 9.88379C5.74974 9.8838 5.46449 9.93812 5.22168 10.0811L5.21973 10.082L3.4707 11.124C3.09922 11.3422 2.96073 11.4204 2.84082 11.4443C2.78866 11.4547 2.69617 11.4676 2.43359 11.3115C2.44902 11.3207 2.41145 11.3096 2.37891 11.1729C2.34726 11.0399 2.33963 10.8597 2.35352 10.6553C2.36707 10.4562 2.39835 10.2623 2.42773 10.1162C2.44225 10.044 2.45616 9.98509 2.46582 9.94531C2.47058 9.92573 2.47411 9.91081 2.47656 9.90137C2.47774 9.89685 2.47898 9.89351 2.47949 9.8916V9.89062L2.48535 9.86719L2.7959 8.51855L2.79688 8.51465C2.85487 8.25519 2.82625 7.98094 2.76074 7.75098C2.69537 7.52153 2.57524 7.27208 2.38672 7.08301L0.933594 5.62598C0.596824 5.28818 0.535355 5.03041 0.554688 4.87695L0.567383 4.81738C0.61766 4.6753 0.801691 4.4699 1.33008 4.37988L1.3291 4.37891L3.19434 4.06836L3.2002 4.06738C3.4401 4.02453 3.66671 3.90723 3.84473 3.77637C4.02267 3.64554 4.20375 3.46278 4.31641 3.24219L4.31934 3.2373L5.34668 1.1709C5.60596 0.656061 5.86565 0.549835 6.00293 0.549805Z" stroke="#CAC8C8" stroke-width="1.1"/>
</svg>
